<svg width="20" height="20" viewBox="0 0 20 20" xmlns="http://www.w3.org/2000/svg">
  <title>discover</title>
  <g fill="#FFF" fill-rule="evenodd">
    <path d="M15 8.5C15 4.91 12.09 2 8.5 2S2 4.91 2 8.5 4.91 15 8.5 15 15 12.09 15 8.5z" opacity=".3"/>
    <path d="M13.6 12.2c.038.028.073.059.107.093l3.54 3.54c.391.391.391 1.024 0 1.415-.39.39-1.023.39-1.413 0l-3.541-3.54c-.034-.035-.065-.07-.093-.108-1.17.88-2.624 1.4-4.2 1.4-3.866 0-7-3.134-7-7s3.134-7 7-7 7 3.134 7 7c0 1.576-.52 3.03-1.4 4.2zM13 8c0-2.761-2.239-5-5-5S3 5.239 3 8s2.239 5 5 5 5-2.239 5-5z"/>
  </g>
</svg>